<svg xmlns="http://www.w3.org/2000/svg" width="1920" height="1080" viewBox="0 0 1920 1080">
  <defs>
    <g id="text" font-family="'Helvetica Neue', sans-serif" letter-spacing=".5">
      <text x="1029.9" y="249.9" font-size="18.2" font-style="italic">
        Albany
      </text>
      <g>
        <text x="404" y="236" font-size="3.9" font-style="italic" transform="matrix(3.43033 0 0 3.43033 155.8 29.2)">
          North
          <tspan x="400" y="241">
            Berkeley
          </tspan>
        </text>
        <g font-size="3.5" font-style="italic">
          <text x="244.6" y="-236.6" transform="rotate(75.5 59 115.1) scale(3.43033)">
            San Pablo Avenue
          </text>
        </g>
        <g font-size="3.2" font-style="italic">
          <text x="277.5" y="-102.2" transform="rotate(74 58.5 118) scale(3.43033)">
            West Frontage Road
          </text>
          <text x="238" y="-398" transform="rotate(84.8 61.9 100) scale(3.43033)">
            Sacramento Street
          </text>
          <text x="230" y="-128" transform="rotate(77.6 59.7 111.5) scale(3.43033)">
            Eastshore Highway
          </text>
        </g>
      </g>

      <g>
        <g font-size="4" font-style="italic">
          <text x="113.4" y="356.3" transform="rotate(-38 120.2 -211.3) scale(3.43033)">
            Hopkins Street
          </text>
          <g>
            <text x="151.5" y="212.4" transform="rotate(-14.4 193.3 -601.8) scale(3.43033)">
              Gilman Street
            </text>

            <text x="234.7" y="-179.7" transform="rotate(75.9 59.2 114.5) scale(3.43033)">
              Sixth Street
            </text>
          </g>
          <g>
            <text x="177.7" y="283.1" transform="rotate(-14.4 193 -600.1) scale(3.43033)">
              <tspan x="177.7" y="283.1">Cedar Street</tspan>
            </text>
          </g>
        </g>
        <g font-size="3" font-style="italic">

          <text x="234.6" y="-190.8" transform="rotate(75.9 59.2 114.5) scale(3.43033)">
            Seventh Street
          </text>
          <text x="217.2" y="234.6" transform="rotate(-14.2 195 -611.1) scale(3.43033)">
            Camelia Street
          </text>

          <text x="212.9" y="-132.7" transform="rotate(75.9 59.2 114.4) scale(3.43033)">
            Second Street
          </text>
          
          
          <text x="195.9" y="-22.6" transform="rotate(57.7 51.4 155.8) scale(3.43033)">
            Gilman Street
          </text>

          <text x="234.8" y="-156.8" transform="rotate(75.9 59.2 114.4) scale(3.43033)">
            Fourth Street
          </text>
          <text x="235.2" y="-201.8" transform="rotate(75.7 59.1 114.8) scale(3.43033)">
            Eighth Street
          </text>
          
          <text x="235.1" y="-167.8" transform="rotate(75.9 59.2 114.4) scale(3.43033)">
            Fifth Street
          </text>
        </g>
        <g font-size="3.5" font-style="italic">
          <text x="211.3" y="-148.3" transform="rotate(75.9 54.7 118.7) scale(3.43033)">
            Martinez Subdivision
          </text>
        </g>
      </g>
      <text x="248" y="880" font-size="14.5" font-style="italic">
        César Chávez
        <tspan x="275" y="897">
          Park
        </tspan>
      </text>
      <g>
        <g font-size="3.5" font-style="italic">
          <text x="107" y="84" transform="matrix(3.43033 0 0 3.43033 155.8 29.2)">
              Golden
            <tspan x="103" y="89">
              Gate Fields
            </tspan>
          </text>
          <text x="463" y="115" transform="matrix(3.43033 0 0 3.43033 155.8 29.2)">
            Martin Luther King 
            <tspan x="467" y="120">
              Middle School
            </tspan>
          </text>
          <text x="400" y="103" transform="matrix(3.43033 0 0 3.43033 155.8 29.2)">
            <tspan y="103">
              Saint Mary's
            </tspan>
            <tspan x="403" y="107">
              College
            </tspan>
            <tspan x="400" y="111">
              High School
            </tspan>
          </text>
          <text x="82.5" y="-127.7" transform="rotate(79.5 60.3 108.3) scale(3.43033)">
              Codornices Creek
          </text>
        </g>
      </g>
    </g>
  </defs>
  
  <path fill="#eee" d="M1174-97.4l-7.2 2-2.1.8 15.8 63.8 2.7 11 19.6 77.8 3.4 14.4 10.3-.7-3.4-14.4-10.7-42.2v-4.8l-11.6-39.7v-2.8h-.7zM1636.7-16l-.7.4-8.9 5.8h-.7L1611.7.4l-1 .3L1604 5l15.1 12.3v-.7l1.7-5.8-.7-.7-.6-.7 18.5-6.8 7.5-3.5-.3-.3-1-4.8h-1l-.4-.4-5.9-8.9zM64.6-7.5c-4.1 6.2-11.3 13.7 1 12.7 10.3-1.4 8.2 8.6 9 16.1.6 15.8-.8 32-1.1 48-11.3-6.8-24-2-36.7-2L9.4 68.7C6.6 58.7 4.6 48.4 0 39.2c1.7 34 0 68.2 6.2 101.8 1 8.6 4 17.2-1.4 25-4.8 8.7 10.3-2 14.7-2.3 7.3 0 14.1 6.2 21.3 8.6 14.8 6.5 29.2 14.7 44.3 20.2 13.3 3.4 26.7 2.7 40.1 1 12.4-2 22.6-9.6 35-10.6 5.1-3.4 1-14 3.4-20.6 3.5-7.5 6.2-15.4 9.3-23.3 14.7-.4 29.5-3.8 44.2-2 10.3 2 21 6.8 31.6 2.7 15.8-3.5 31.2-4.8 47-4.5 23.7 0 47.3-.7 70.3.7 8.6 5.5 20 7.9 24 18.2l26 37.7c4.9-20.2 2.8-40.8 3.2-61.4 11.6-2.7 23.3-7.5 34.3-11.3l108.7.3c4.1-9.6 1-19.9 0-29.8-20.6-11-36-29.2-53.8-44.6-8-5.8-13.8-16.5-24.7-16.5-20-4.8-40.2.7-60-.3-7.6 0-17.2-2.4-13.8 8.2-.3 7.6 1 15.5-6.8 19.2-5.2 6.9-12.7 6.9-20.6 7.2-12.4 1.4-25 .4-36 7.6-16.5 7.2-33.7 13.7-48 25-9 5.2-20.3 5.5-30.3 9-31.5-.7-63.4-1-95.3-.4L154 48c-6.8-3-17.8-1-19.2-9.9L121.2 6.6a85.8 85.8 0 0 1 21 29.5c5.4 13 2 0 1-6.9-1.8-8.2-7-15.4-9.7-23-14-4.8-27.4-12.3-43.2-11.6zM1828 .7l-14 2.8v1.7l.6 2.4 1 2.4 1.4 2.7 12.7-5.1-1.7-6.2zm-337.5 39.5l-4.8.7h-1l-.4.7-.3.6V52l.6 1 6.9-.4-.3-11.6zm-271.7 41.2l-9.3.6 1.7 6.2 27.5 109.8 9-2.4.6.7h.3l-10.6-42.2-16.5-61.8zm32.6 124.8h-.7v1l-9 2.1 30.3 119 10-2.4-2.8-8.9zm482.6 7.6l-1 3.4-1.4 4.1-1.7 3.4-1.7 2.4-2 3.5.6.7 9.6-4.8V225l-2-11zm-50.7 42.5l-3.5 11.3.7 1h1.4l7.5-8.9zm-245.7 39.4l-16.4 51.2 15 4.8 16.5-51.5zm-154.3 35.7l-10.3 2.8 19.9 77.2 8.2-1.8 8 23 2 5.9 4.4-15.8-1-.4-5.1-14.4-10.3-29.8zm-77.5 7.2l-6.9 1.7 2 6.6 6.6-1.8zM1037.4 359h-1l-6.2 1.7-8.2 2-12 3.1-16.8 4.1-3.8 1-2 10.7-2.5 10.3-4 9.6-3.8 4.8-4.5 2.4 3 11 1.1 2.4 50-2 24.4-9.3-3.4-11.7-.7-3.8-1-4.4-1.4-5.2-3-11.3-3.5-14.4zm754.7 11.3l-71.4 43.6 19 32.5 76-48.7-1.6-14.7-9-10zm-942.3 40.5l-71 18.1 7.5 29.5h-.7l11 44.3 5.2 20.2 43.9-11.3h.3l21.6-5.5v-.7l-2.4-10.2h-.3l-10.7-44.6 7-1.4v-1l-3.2-7zm468.2 23.6l-2 5.9-1.7 6.1 7.5 20.6 4.1 12.4v.7l3.4 1 1-2.4 1.8-6.2-6.9-19.2zm15.1 55l-1.4 5.4 7 21 3 7.5 3.4 10.6.7-1.7 3.1 7.5 2.4 7 1.7 5 1.7 4.5 1-3.4 4.9 6.8 14.4 41.2 1.3 2.7.7 2.1.4-3.4-4.8-15.1-2-5.5-1.8-4.8-7.2-20.6v-1l2-6.9h-2.3l-1.4-1-1-3.8h-2.1l-4.8-13.7v-1.4l1.7-4.8-1.4.7-1-.7-2-5.5v-.7h-1.8l-9.2-26.4-3.5-1zm57.3 142.3l-8.2 5.1 7.9 23.3 6.8 19.3 6.9-3.5 2-1.7zM690 642.2l-48.7 12 8.6 42.2 1 28.1 12 60.8 20.6 26.4 54.9-12.7-12.3-51.1-23-82zm726.2 34.7l-27.4 13-20.6 3.4v.7l10 35.7 24.3-6.2 12-2.4 22-3.4v-1l-7.6-13.4zm12 48l-9.2 1 .7 2 7.2 31 .7 1.7 3.4 47.6 15.4 158.2.7 6.2-17.8 2.7 1 12.3 18.2-3 .7 13 5.8-.7-1.7-25.4-8-82.3-.6-9-3-33.5-.8-5.9-2-33.6-4.8-48.7 10-1.7-1.5-13.7 1.4-1-.3-2.8-11.7 1.7-1-11.7zM324.3 733c-39.1 11.7-78 26.4-118.4 33.3-19.9 5.1-40.5 9.6-59.7 16.1l-35.3 24c24 33.3 49.4 65.9 69.3 102 19.5 30.8 44.2 57.2 65.9 86l59.3 75.5c10.3.7 24 3.4 12.7-8.3l-24.7-37.3c12-8 21.3-21.7 36-24.7l131.7-29.5c-4.4-16.2-3.4-35-15.4-48a1042.8 1042.8 0 0 1-62.8-94.8c-20.6-30.8-39-62.7-58.3-94.3zM1568.8 776l-5.8.7v3.4l1.3 1.4 4.5-.7v-1.7zm418.8 41.2l-10 1.3v2l-4.4.8v3l-8.6 1.4 1.4 11.7 23.3-3.8 4.8-.7 5.9-1-2-11.3-4.5.7-.7-2-4.8.3zm-660 8.2l-18.8 3 1.3 7.6h2.4l.7 5.5 15.5-2.4zm577 .7l-6.2 5.5-28.8 4.4-9.2 1.4-6.2 5.8-8.2 4.1-13 .7-7-4.4-29.8 4.8-7.9 1.3-10.3 3.5-7.5 4-19.2 2.8-8.6-2.4-63.1 9.6-4.5-7.2-7.9-3.4-6.8-4.5-24.7 4.2-2.8-9-1-13-14.4 2.4-7.9-3-.7 9.2 2.8 31.2 10.6-1 8.2 2.4 25.8-4.1 11.6 6.8 2.8 9 171.1-27.2 49.4-8.9 27.8-5.1-1.4-11-12 1.4zm-818.5 50.4l-33.6 8.2 17.9 71 33.6-8.9zM574.7 181.2l-13.7 1.7-14.5 5.5-14 10-12.4 17-4 10.4-1.1 12.7L543 390.8l5.5 29.1 5.8 15.5 10.3 13.3 11 8 14.4 6.4 14 1.8 13.8-.7 12-4.5 11-6.8 8.9-9.3 5.8-11 3.1-8.9 2.8-11 1-8.2-32.6-177-2.7-8.2-5.5-10.3-8.3-11-12-9.3-11.6-4.8zm-1.7 20.6l-3.5 12.6-5.1-.6-3.4.6-4.5 2.8-4.1 4.5-3.5 2.7-3.4 1h-3.8l-3.4-1.3 1.7-3.5 3.5-4.4 4.8-4.5 5.5-4.1 6.8-3.4 6.9-2.1zm11.3 1.3l4.8 1.4 3.4 1.7 5.5 4.1 4.8 5.2 4.1 5.5 3.1 6.8 33.6 175-.3 5.8-.4 5.2-1.7 5.4-2 4.5-2.8 5.5-2 3.4-2.8 2.4-4.8 3.5-3.4 2-5.8 2.4-6.2 1.4-6.9.7-7.5-.7-8-2.8-5.7-3-5.5-5.2-4.5-4.8-3.4-5.8-2-6.2-12.8-62.8-2.7-17.8.7-8.6 1-7.2 5.8-23.3zm-17.5 13l2 1-21.6 87.2-11.6-59.7v-10l.7-4.4.6-2.7 5.2 1.4h4.1l3-1.4 6-5.2 5-4.8 3.2-1zm-121.1 105l5.8 34.3v2l2 2.2 2.8 2 11.3 9.6 15.8 19.6-2.7 1.7 12.3 26.7 2.8 2.8 4.8 1 17.8 1.7 3.4-4.4 8 2.4 1-2-4.5-6-13.7-16.4-1.4-1.7-5.5.7-10.3-13.7-2-5.2.7-4.8 2.7-5.5 5.2-2.7-8.3-53.5z"/>
  <g fill="none" stroke-linecap="round">
    <g stroke="#eee" stroke-width="4">
      <path d="M822.4 800.6l30.8-7.7M806.4 525.2l9 39.9M1763.8 874c3.6 39.7 6.8 79.5 10.4 119.2M1512 762.7c0 9.2 3.3 18.8 1.5 27.8M1561.7 737.8c1 12.5 2.3 25 3.4 37.5M1449.6 802c-.7-17.9-4.8-36-3.3-53.9M1378.6 770.4l44.9-7"/>
      <path d="M1512 762.7c30.5.8 31.5-34.7 68.4-27l10.1-.9M1482.5 37.3c1.4 6.8-1.5 15 3.2 20.8M1531.9 678c-5.2-23-1.5-30.5 21.8-37.1M1520.7 872.3c28.8-4.6 57.4-9.6 86.2-13.5M1673 44.8c3 22.4 8.4 44.9 9.4 67.4M451.5 128.4c-10-18.4-22.3 6.3 0 0M1751.3 610.4l1.7 21.3M1661.4 633.4c8.2 77.2 13.6 154.8 21.1 232.1M1664 657.4c35.8-24.5 78.3-21.6 119.3-31.3M1660.6 620.5l.8 12.9M1660.6 620.5a301.1 301.1 0 0 1 85.9-56M1714.1 609c75-36.9 161.6-35.4 242.2-53"/>
      <path d="M1685.9 548.1c19.3 46.2 46.5 91 61.2 138 3 21.4 2 44.9 7.2 65.4M1730.6 527.6c4.8 12.4 12.5 24.4 15.9 37M1760.7 513.4c21.9 20.4 26.2 47.6 19.2 75.6 5.6 52.4 7.3 105 13 157.4M1808.5 460.5c6.3 66.2 12.4 132.5 17.6 198.7M1839 346.9c11.4 128.8 23.4 257.6 33.2 386.5M935 910.9c11.4 44.8 23.6 89.5 34 134.6M1453.4 656c30.7 30.7-9.8 35.2-4.6 61.7M1364.3 690c22 82 19 169.2 29.7 253.3M451.5 128.4c55.4 4.4 127.8-23.6 165.2 32.7M795.9 695.5l13.3 52.4M1692.2 642.7l6 37.5M1762.9 134c-1.4 6.3-6.8 7.9-12.7 7.6M809.2 748c8.7 34.9 17.5 69.8 26.5 104.7M1370 462.4l29.5 9M1846.6 88.7c-16.2-2.1-33.6 8-50 10.4M856 931.3l20.4 78.6M909.5 917.6c20.7-5.5 41.5-10.6 62.3-15.7M1219.3 879.9c97.4-15.7 194.6-32 292-47.4M1590.5 734.8l5.7 2.5M1188.2 930c109.6-24.9 222-37.9 332.5-57.7M1337.6 902.3c3.4 40.1 7.8 80.2 10.3 120.5M1692.8 1007.7c3.1 9.3 7-6.5 0 0M1315 395.1c2.1 5.2 3.6 10.6 6.2 15.6M1324.9 394.6c-2.8 2.3-6.9 3-9.8.5M1514.3-22.4c1 14.5-2.6 30 2 43.9M1696.9 1007.7c25.2-4.2 50.4-8.3 75.7-12.3M1484.6-20.4l-2 57.7M1454-22.8c-18.7 72.8 27.9 142 11.7 212.3l-3.6 12.6-1.7 5.9M1089.4 378.3c79.1-21.1 159.2-39 237.6-62.8"/>
      <path d="M1120.1-10c49 193.3 98 386.6 146.7 580l6 4.8M1230.7 76.1c19.1 95.3 43.6 190 71.3 283.4 4.4 11.9 8.5 23.8 13 35.6M1149.6-17.5c47.6 179.2 87 361.6 139.6 538.8M1532 54.8c15-24.4 49.8-35.3 72.7-54.2l63.3-41M1491 37.1c51.8-31.4 102.2-66 153.4-98.6M1214.6 881l4.7-1.1M1600.4 6.4c42.5 20.6 38.6 66.2 50.8 105.4M1568 805.4c115-18.4 230-37 345-55.7M1734-4l2 21.8M1797.3 102.7c47.5-9.9 102.5-37.7 148-6.6M932 17.9c15.7 61.8 31.3 123.7 46.8 185.6M1842 64.5l4.6 24.2M776.3 617.6l19.6 77.9M1298.2-29c-1 33.6-2.7 67-3.4 100.6M776.3 617.6c-6.6-26.5-13.2-53-20.1-79.5M738.9 470.9l17.3 67.2M1338.8 68.5c8.5 34.4 17 68.8 25.7 103.2M1090.6-2.5c54 211.1 106 422.8 160.8 633.6M1061 5.1c69.9 275.4 139.2 550.8 209.5 826M1089.3 242.2c15.4 58.8 30.4 117.7 45 176.6M776.8 149.8l-52.7 13M1526.5 55.2c-1.3 26.3 16.6 51.5 13.4 77.5M1895.4 68l3.9.5M1886.3 62.9c3 1.7 5.3 4.7 9.1 5M1899.3 68.5c7.6 2 22.7-4.6 24.7 6.7M1602.4 840.7c105-16.7 210-33.9 315-50.9M1596.2 737.3a25599 25599 0 0 0 232.8-38M1263.6 69c24 88 43.6 177.5 69.1 265.1M1465.5 681.5c12.4-5.8 25-11.4 37.4-17.1M1303.6 71c16 64 32.4 128 48.8 191.8M1362.6 268.8a8.7 8.7 0 0 1-10.2-6M1352.4 262.8c.6 5.7.4 15.7 6.5 18.5M1341.4 339.3c-1.5-3.6-6.5-2.2-8.7-5.2M1330.4 695.6c10 40.3 20.4 80.6 30.7 121M1293.4 693c1.5 3 4.2 5 6.1 7.6M831.8 686.2l11.1-2.9M1031.5 12.6c19.6 76.5 38.4 153.1 57.8 229.6M795.9 695.5l35.9-9.3M809.2 748l32.6-8.3M771.2 758c12.6-3.4 25.3-6.8 38-10M1828.2 341c4.2.1 9.4 1.4 10.9 5.9M1839 346.9c1.2-4.6 1-9.5-1-13.8M1836.4 318.1l12.3 3.2M1838.9 276c-1.1 2.6-5.1 2.6-5.7 5.7M1332.7 334.1c1.4 4 .7 11.9 6.6 12M1327.3 10.8c-.6 19.6-1.5 39-1.7 58.6M868.3 788.1l33.6-8.2M782.7 810.4l39.7-9.8M970 294.2c-59.3 16.5-118.6 33-177.9 49.2M792.1 343.4l3.8 13.3M971.8 901.9c79.2-20.6 158.3-41.4 237.8-60.7M812.2 942.8l43.7-11.5M856 931.3c17.8-4.6 35.5-9.5 53.5-13.7M777.6 953.5c3.1-1.3 6-2.9 9.2-4M1551.2 269.6c-6.7 30.4-22.5 60.7-23.2 91.4M1551.2 269.6c77.4 24.1 156.8 43 233 70.5 6.1 5.3 10 12.2 14.4 19"/>
      <path d="M1486.8 386.6c43.5-21.7 84.2-67 136-60.4l4.7 1.9.8.3M1584.7 595c18-8.2 36-16.2 53.8-24.9M1447.3 204c-31.7 104.6-61.2 210.2-95.3 313.8M1046.5 1025.6l34.2-8.7M1555.2 447.3c-1.2 28.4-28.5 53.6-21 81.6M1359-27c-1 31.4-2.2 62.8-3.4 94.3M465.7 971.5c47.8 57.9 71.3 131 101 199.1M1843.2 271.8c25.7-23 43.8-66 83-65.7M1675.8 271c-4 4.1-3.8 11.1-3.6 16.5M1820.8 234.8c31-24.5 52.6-63.8 95.7-69.3 11.3-5 24.7-6.5 34.9-13.7M1867.8 135.7c5.4 13.8 10 27.7 15.2 41.6M1423.6-24.5c-2.6 28.7.7 59.7-5.3 87.3M1010.3 202.6c-16.5-64-32.5-128.2-48.9-192.3M1903.6 253.8c27.1 5.4 17 25.7 29.1 41M900.1 16.1c8 32.2 16.5 64.2 24 96.4M1867.2-36.7c-34.7-1.8-26.5 41.4-10.7 58.5 8.7 14.5 18 29 29.8 41.1M864.3-2.4c17.8 70.2 34.8 140.6 52.7 210.7M1870.5-36.3l-3.3-.4M1276 704.9c7.8-1.6 16-1.5 23.5-4.3M1192.8 650l13.2 52.2M1848 899.5c-1 26.3 4.3 53.9 5.7 80.5M1031.8 970.3c37.5-11.1 77.2-17.8 113.6-31M1206 702.2l29.6-7.5M1163 995.8c23.1-6 46.3-11.7 69.4-17.6M1232.4 978.2a365 365 0 0 1 7-1.5M1239.3 976.7l4.2-.4M1243.5 976.3l6.5-.3M1843.1 860.8c.2 12 4 24.7 2.3 36.5M1684.3 887c79.4-13.8 159.5-24.6 238.3-40.4M1856.2 981.8c25.6-4.5 51.5-8.1 77.2-12.6"/>
      <path d="M717.8 133c42.4-15 91.2-15 129.7-38.2 15.7-17 18.8-42.9 25.1-64.6M1206 702.2c4.1 14 6.4 28.8 11.5 42.5M1250 976c30.9-5.4 61.8-10.5 92.8-15.4M1675.8 271l7.6 2.1M1662.1 336.3c-9.8-12.5-19.2-10.2-33.8-7.9M1628.3 328.4c7.5 19 18.1 12.5 33.8 7.9M1392.1 945.8c6.7 7.6 4.2-9.1 0 0M1344.8 329.1c19.8 6.2 39.7 12.3 59.7 18M859 735.5c86.7-22.6 173.6-44.3 260.2-66.8M776.8 149.8C826 138 875 124.7 924.1 112.5M882.5 551l4.8 18.6M1662.1 336.3c20-.7 31.8 15.2 49.3 21M1680.6 340.1c-4.3 32.2-35.7 69.9-8.8 99M1606.2 911.3l5.5-.7M839 532c12.2 47.6 24 95.3 36.4 142.9M1711.4 357.4c-3.1 19.6-21.4 41.5-4.3 59.4M1396.5 945c70-11 139.8-22.4 209.7-33.7M1342.3 954l49.8-8.2M1299.5 700.6c19 66.2 36.1 132.4 38.1 201.7M1220 757l20 79M1022.2 777l39-9.8M1675.2 437c20.2 29.4 40.8 58.6 61.1 87.9M1085 1015.5c24.6-6 49.2-12.2 73.7-18.5M1641.6 458.2c18 28.4 35.7 57 53.4 85.6M1875.4 329.3c18.3-12 41.8-20.4 57.3-34.5M648 650c17.5-3.5 34.7-8.7 52.1-13M1048.1 551.8l18.8 74M648 650c-33.2-37-56.2-87-85.5-128.8-2.7-4.6-5.9-8.8-8.2-13.6M1067 625.7l9.5 37.3M1145.7 773c13 51.7 26.2 103.3 39.5 155M725 546.3l31.2-8.2M910.3 813.2L915 832M902 779.9l2.8 11.5M904.8 791.4l5.5 21.8M887.3 569.6L892 588M1008 558.2l19.9 77.7M892 587.9c27.1 104.5 53 209.4 79.8 314M1076.5 663l3.8 15.7M1080.3 678.7c21.5 86.8 45.5 173.8 65 260.6M854.3 87.6c12.5 39.5 21.4 81.5 31.1 122.1M1107.4 621c0-.8-1-4.2-1.5-5M815.5 565l30-8M804 525.8l2.4-.6M835.9 135c6 25.5 13.5 50.9 18.8 76.6M1132.4 721l13.3 52M806.7 142.5c4.9 23.6 13.2 46.9 16.1 70.7M1119.2 668.7l13.2 52.3M1107.4 621l11.8 47.7M875.4 674.9c8.7 35 17.6 70 26.5 105M1039 354.1l41.6-11M971.8 901.9c11.6 44.7 22.7 89.5 34 134.2M952.3 655.3c25.2-6.4 50.4-12.6 75.6-19.4"/>
      <path d="M772.7 11.1c7.5 28.8-10.6 67.4 21.3 87.4 6.2 3.4 13 6 18.3 10.8M750.5 93a48 48 0 0 1 14 9M1027.9 636l39-10.3M1098.7 913.3c3.1 12.4 6 24.9 9 37.3M744.1 94.6c6-1.4 11.7-3 17.6-4.5M1080.7 1016.9c7.7 7.4 3.3-10 0 0M1067 625.7c68.7-16 136.7-37 205.7-50.9M843 683.3c29.4-7.7 59-15.1 88.5-22.6M902 779.9c101.3-25.6 202.6-51.8 304-77.7M858.5-25.3l5.8 22.9M1158.7 997c8.2 6.5 2.5-9.9 0 0M808 30.4c-15.3 84.5 38 34.7 36-13.6M730.1 193.7c18.3-4 36.3-9 54.4-13.3M1027.9 636c23.5 92.4 46.5 185 70.8 277.3M1090.4 554.4l15.5 61.5M931.5 660.7l20.8-5.4M1134.4 418.8c19 77.2 39 154.1 58.4 231.2M1119.2 668.7c43.9-10.7 87.6-22.3 131.3-33.5M1255.4 635c-.3-13.7-12 6.4 0 0M1253.2 636.5c14.3 63.4 31.9 126.5 47.4 189.7M1332 666.5c-4.4-31.8 15.4-63.7 21.8-94.5M1347.2 542.1c-13.4 39.6-29.4 81.3-35.1 122.1 1.3 4.4 1.5 9.2 4.2 13M1300.2 483.3c-14.4 49.5-29 99.2-45.8 147.8M1353.8 572c.5-1.2 1.8-6.8 2-8.3M1355.8 563.7c-3-7.2-5-14.7-8.6-21.6M1375.8 498.7c-4.9 15-8.2 30.5-14 45.1M1493.9 556.1c6 68.9 11 137.8 18.2 206.6"/>
      <path d="M1551 610.7c-3.3 25.1 23.9 73.2-19 67.2l-27.5 4.7M1483.2 399.9c-18.2 70-44.7 138.3-60.2 208.7 5.9 17.8 11.3 35.9 16.8 53.8M1551 610.7l2.2-1"/>
      <path d="M1429 627.3c64-22.6 120.3-63.2 179.6-95.7 6.6-2.8 12.2-10 19.5-10.3M1683.9 9.7c35.3-3.4 66.6-21 91.4-45l2.7.6M1813.4 9.8c7.2 19.3 22.7 34.8 28.6 54.7M1418.3 62.8c-2.4 41.2 33.5 84.8 7.7 125.8-30.4 64.8-43.3 137.2-66.5 205-24.9 87.3-55.2 174-76.9 261.5 4.5 12.2 4.4 26.6 10.8 37.9M1754 78.1c10.1 75.2 27.7 150.5 33.9 225.5M1683.4 273.1c51 14.8 102.1 29.6 153 45M292.2 1008.9c-20.8-18.8-7.5 25.8 0 0M317.8 1002.3c-8.5 2.3-17.3 3.5-25.6 6.6M1831.1 273.3c1.8 2.3-1.2 6.7 2.1 8.4M1767.2 161c.7-5.4 4.7-8.5 9.9-9.4M1833.2 281.7l3.2 36.4M1149.2 941.7c-.9 16.6 9 35.5 10.9 52.5M1185.5 933.1c11-5.6-9.8-7.3 0 0M1836.4 318.1a18 18 0 0 0 1.6 15M1812.5 6.3l.9 3.5M1817.5-46.2a80.7 80.7 0 0 0-5 52.5"/>
      <path d="M1739.8 227.9c8 34.1 13.2 68.5-3.2 101.2-7 12.3-2.3 44.2-25.2 28.3M1186.3 933c9 36.9 19.4 73.4 28.1 110.3M1561.4 876l4.5 42M917 208.3l.3 4.7M885.4 209.7l.4 5M854.7 211.6l.1 4.9M781.6 213c-9.9 1.4-20.5.7-30 4M925.4 352.2l-11.3-42.5M883.3 356c-3.1-11.7-6.3-23.4-9.6-35M849.4 357.7c-2.6-9.3-5.2-18.5-8-27.7M813 337.6l5.6 20.7M1628.4 518c12.9-5.4 24.6-15.1 37-22M1615.3 474.7c7 13.3 4.6 31 13.1 43.2M1654.7 562.5c61.3-24.8 117.8-65.3 185.5-69.2 17.2-2.8 34.3-5.8 51.5-8.4M964.8 550.8c39.4 154.4 78.3 308.9 117.5 463.3M1628.1 521.3c10.8 11.6 17.4 27.9 26.6 41.2M1600 537c3 6.6 9.6 12.2 10.4 19.5M1643.3 567.8l7-3.2M1650.2 564.6l4.5-2.1M1650.2 564.6c9.2 17.3 9 36.9 10.4 56M1619.5 579.2c3.5 37.3 6.8 74.7 10 112M1608.5 637.1l42-9.8M1650.5 627.3c3.3-2.3 7.2-3.8 10.1-6.8M1650.5 627.3c4.3-.6 10 1 10.9 6M1605.2 899.8l5.5-.7M713.7 220.6c17 22.6-31.3 26.7-18.5 47.4l3.4 1.9M1626.6 161.6c33.7-15.4 69.4-9.5 103 2.2M616.7 161.1c8.3 10.6 15.7 22 25.2 31.6M1709 158.1L1675.8 271M1397.3 977.4c70.6-12 141.9-21.6 212-35.5 31.5-16.8 73.1-12.7 108.3-22 42.2-8.1 87.1-11.6 127.8-22.6M1485.7 58c13.6 50.7 38.7 106.4 13.3 158.2-21.7 66.7-41 134.3-61.7 201.3M702.2 336.3l5.9 2M690.9 335.2c3.7-.6 7.7-.3 11.3 1.1M708 338.3c1.6 5.6 2.2 11.5 4.5 16.8M1562.1 52.7a561.8 561.8 0 0 0 30.4 105.6c-5.7 27.6-15.5 54.4-22.7 81.7M1599 50c6.4 42.8 26.8 84.8 26.8 127.6l-20.7 72.7M1559.4 139c-20.5 80.6-52.2 157.2-73.4 237.8M1512.4 448c-10.2 39.5-27.1 78.6-33.3 118.2M1535.8 788.6c19.5-3.3 39.3-5.2 58.7-9.2M1410.2 437.8a1211 1211 0 0 0-18 59M1437.3 417.5c5.6-1.7 12.1-3 14.8-9M1452.1 408.5c-3.8-.3-7.8-.5-11.4-1.9M1483.2 399.9c3.9-2.2 2.6-7 3.8-10.5M1482.8 389.6c1 1.5 3.4 1.4 4.2-.2M1482.8 389.6c.8 3.3-1.7 7.2.4 10.3M1487 389.4c.5-.9.4-2-.2-2.8M1482.6 387c-.4.8-.4 1.9.2 2.6M1422.4 195.3c83.2 28.3 169.2 50 253.4 75.7M1486.8 386.6c-1-1.5-3.5-1.2-4.2.4M1452.1 408.5l30.7-19M1486.8 386.6l-.8-9.8M1486 376.8c-2.7 2.8-2.5 6.7-3.4 10.2M1431.4 364.5c-4.7 15.2-7.6 32-14.7 46M1672 151.7l-31.7 108.9M1401.1 358.7c16.4 7.3 34 3.8 50.5 11.3M1422.3 288.4l29.6 8.9M1472 231.8c-6.6 21.9-13.4 43.7-20.1 65.5M1380.1 608.1c-.8 9.3-10.5 20.5-5 29M1149.2 941.7c8.7-6.6 23.7-6.3 34-10.4M1554.3 315.3l12.6 22.8M1551 466c37.5-29.6 17.6 8 38.3 25.3M1553.2 609.7l31.5-14.7M1434.4 248l29.9 9M1560.6 237.5l-9.4 32.1M1610.7 899c24.6-3.7 49.1-7.8 73.6-12M1684.3 887c3.3 39.7 7.2 79.4 10.3 119.2M1516.6 792.9c4.6-4.7 13.3-2.1 19.2-4.3M1509.7 792.3c1.3-.2 3-.4 3.8-1.8M1754 78.1c0-1-.6-4.8-.9-5.7M1734.3 960l1.9 21.9M1209.6 841.2c100-16.7 200-32.6 300-48.9M1437.3 417.5c-18.9 63.6-38 127.1-57.2 190.6M1736.2 981.9l1.4 19M1733.9 955.4l.4 4.5M915 832c7 26.2 13.5 52.6 20 78.9M1299.5 700.6c50.3-7.6 101.4-12.7 145.4-40.6l106.1-49.3M1516.6 792.9c-3 25.6 6.3 53.5 4.1 79.4M465.7 971.5c-49 6.7-98.5 22-147.9 30.8M1594.5 779.4c52.1-9.8 105.5-18.8 157.7-25.2M1825.8 664.5c5.4 60.2 10.5 120.4 16.2 180.6M1747.4 39.7c2 10.9 3.6 21.8 5.7 32.7M1640.6 771l3.3 40.6M1752.2 754.2c5.7 33.4 6 69.1 10.3 103.2M1398.9 1014.5l.9-5M1394.4 947.7c1.7 20.6 4.7 41 5.4 61.7M1482.5 37.3l8.6-.2M1854.4 980c-9.7 4 7.3 7.2 0 0M1776.5 994.8l75.2-12.2M1772.6 995.4c6 6.6 3.5-8 0 0M1466.7 714.8c7.1 72 12.7 144.2 19.1 216.1"/>
    </g>

    <g stroke="#777">
      <g stroke-width="8">
        <path d="M1059.3 251l-1.2-4.4M1053.2 245.7l1.3 5M1225 921l.8 3.3 10.2 39.4M1149.1 605.1l-.8-3.2-3.7-14.8-5.9-22.5M1138.7 564.6l-1.5-6-.3-.9M1205 842.2l.6 2.9 1.7 6.5 5 19.9 2.3 9.5M1067.8 293.2l1.4-4.7-1.2-4-2-7.8M1016.5 91.3l-1.3 4.4 6.2 24.3 3 3M1016.5 91.3l-1-4.3-4-15.8-.6-2.4M1080.6 343.1l-1-3.9-.7-2.4-1.8-7.2-2-7.3-3.5-13.9-3.8-15.2"/>
        <path d="M1024.3 123l.7-3 .4-1.5-1-3.9-1.1-4.7M1044.5 200.6l-2.6-9.8-1.3-5-2.8-11-.8-3.5-2.9-11-5-19.2-4.2-16-.6-2.1M998.8 21l-2-7.7M1258.1 1033l-.7-3-3-12.2-2.8-10.7-5.2-19.6M1058.1 246.6l-.7-3-.7-2.7-1.8-7.6-2.7-10.9-1.7-6.6M1246.4 987.5l-2.1-8.2-.8-3M1242.1 971.5l-.5-2.4-8.6-35M1144.6 606.3l.7 2.7 3.2 13 4.9 19.5 3.6 14.4.8 3.3.7 2.7 3.5 13.3 6 23M1189.4 762.1l-1-3.8-11.7-45.5-.7-2.8-.8-3-4.5-17.7-6.5-25.8-.7-2.9-.8-2.8-.8-3-6.3-24.6-3.2-12.6M990-13.8l-2.2-9-3.9-15.2-2.6-10.6-.8-3-4.5-18-2.2-8.4-1-3.9-.5-2-1.1-4.4-1-3.8-2.6-10.3-3.5-14-1-4.2-1-3.4-.8-3.2-2.8-11.2-.7-2.8-1.4-5.2M1050.5 215.8l-1.6-6.5-.8-3-1.1-2.2-2.5-3.5M1066 276.7l-2.2-8.5-3.9-14.7-.6-2.5M1054.5 250.8l1 3.6 8.4 35 3.9 3.8M1229.5 920l-1-3.8M1228.6 916.2l-2.3-9-2.4-9.3-3.9-15.3-.7-2.7M1184.8 763.4l.8 3 .7 3 3 11.5 12.6 49.4M1259 1037l-.9-4M1214.6 881l.3 1.3.4 1.3 5.1 19.8M1264.9 1059.5l-5-19.5-.8-3M1084.6 359l-3.2-12.6-.8-3.3M1253.5 1033.8l1 4M1048 224.4l4.5 18.3.7 3M1254.4 1037.8l.8 3 8.7 35 3.7 14 .9 3.1.6 2.5 5.5 22.8.8 3 5.2 19.5M1220.4 903.4l.6 2.2 3 11.5 1 4M1202 830.3l2.1 8.9.8 3M1179.7 743.4l1.4 5.8 2.7 10.3 1 4M1194.4 781.6l-2.7-10.3-1.4-5.4-1-3.8M1168 698.2l2.6 10 .8 3M1243.5 976.3l-.8-2.6-.6-2.2M1239.3 976.7l.8 3.1.2.7M1171.4 711.2l.7 2.6 7.6 29.6M1141.3 593.7l2.5 9.3.8 3.3M1152.4 617.6l-.4-1.4-2.2-8.4-.7-2.7M1011 68.8l-2.5-10-1.1-4.3-1.4-5.4-3.5-14-3-11.2-.7-2.9M1023.3 110l-3.7-14.5-3.1-4.2M993.4-.8l-3.3-13M1044.5 200.6l-.7 4 .2 3 4 16.8M1137 557.7l-3-12.4M1233 934l-2.6-10.6-.9-3.3M1124.8 528.5l.8 3.4.9 3.7 1.7 6.9 3.7 14.9 8 31.2 1.4 5M995.3 7L994 1.6l-.5-2.3M1219.3 879.9l-5.2-20.8-3.8-15.1-.7-2.8-.7-2.9-4-15.8-10.5-41M1247.7 1010.5l5 20.2.8 3.1M1240.3 980.5l7.4 30M1236 963.7l2.6 10.3.7 2.7M996.9 13.3l-1.6-6.2M1215.6 1048.1l3-.7 8.8-2.4M1227.4 1045l2.5-.7 5.8-1.5 15.6-4.5 3.1-.5M1770.7 954.1l2.8-.4 46-7.4 5.5-.9 13.7-2.2 8.3-1.4 3.2-.5 3-.5 4.8-.8 24-3.9 19-3 7.5-1.3 1.2-.2M1871 933l-4.2.6-14.2 2.3-2.7.5M1909.7 931.6l2.7-.5 8.9-1.5 2.6-.4 1.6-.7 4.2-2.8M1929.7 925.7l-4.4-1h-2.1l-17.8 2.7-28.1 4.5-6.3 1M1258.1 1033l-4.6.8M1253.5 1033.8l-3 .6-15.3 3.8-4.2 1-13.6 3.4-3 .7-3 .7-32.3 8.5-3.7 1-3.5.8-12.5 3.1-8.4 2M1849.9 936.4l-3 .5-11.5 1.8-8.8 1.4-7.9 1.2-45.6 7.6-2.7.4-2.9.5-33.6 5.6-1.9.2-1.7.3-8.6 1.4-11.6 1.9M1617 974.3l-4.7.7M1612.4 980l5.1-.9M1532.9 987.8l-3 .5-9.6 1.5-34.6 5.7-33 5.5-12.6 1.9M1254.4 1037.8l4.7-.9M1348 1022.8l2.6-.5 28.5-4.6M1509.8 996.6l20.8-3.3 3-.5M1749.2 957.5l18.7-3 2.8-.4M1590.3 983.6l18.7-3 3.4-.6M1330.3 1025.6l14.4-2.3 3.2-.5M1259 1037l3-.6 15.2-2.4 53-8.4M1440 1002.9l-18.3 3-2.7.4M1617.5 979.1l3.3-.6 6.2-1 12.1-2 17.8-3 15.8-2.5M1672.7 970l.6-.1 6-1 8.9-1.5 3.2-.6M1710 959.2l-16 2.6-3.1.5M1286.1 1028.1l-7.4 1.3-17.8 3-2.8.5M1366.2 1014.9l-3.3.5-12.2 2-2.9.5M1691.4 966.8l3-.5 37.5-6 2.4-.4 14.9-2.4M1551.3 984.8l-3.5.6-12.2 2-2.7.4M1612.3 975l-3.8.5-13.3 2.2-10.8 1.8-16.7 2.7-16.4 2.6M1533.6 992.8l2.2-.4 25.7-4.1 28.8-4.7M1347.8 1017.9l-3 .4-8 1.3-17.4 3-29 4.7-4.3.8M1638.4 970.9l-7.7 1.3-6.6 1-3.7.7-3.3.4M1419 1006.3l-3.2.5-4.2.7-11.8 2-2.6.3-3.4.6-11 1.8-13 2-3.6.7M1690.9 962.3l-3.2.5-9.3 1.5-6.2 1-33.8 5.6M1379.1 1017.7l18.8-3M1398.9 1014.5l17.5-2.8 3.3-.5 2.8-.5 18.3-3 12.3-2 3.9-.5 28.6-4.7 9.4-1.5 14.8-2.4M1397.9 1014.7l1-.2"/>
      </g>
      <g stroke-width="6">
        <path d="M808.4 214l-15.3.9M822.8 213.2l-14.4.8M819.7 218.6l23.2-1.3M1492.8 125.5l1.5-.1 5.6-.1h4M1795.1 89.3l1.5 9.8M794 219.9l4.4-.1M854.7 211.6l-31.9 1.6M1789.5 55l.4 2.4.2 1M937.1 211.8l7.2-.4h4.6M842.9 217.3l12-.8M868.1 210.7l-13.4.9M1796.6 99l.7 3.7 5.6 34.4M1054.5 250.8l4.8.2M775.2 222l4-.5 7.4-1 4.8-.4 2.6-.2M1035.5 243.3l2 1.5 2.5 1.8 8.4 3 2.5.7 3.6.5M686.8 228.5l9.4 2.9 10.5 1.4M1053.2 245.7l-3.4-.8-7.9-2.8-12-7.6-6.2-4.4-5.7-4.1M854.8 216.5l14.8-1 16.2-.9 21.6-1.1M947.7 206.6l-4.6.3-26 1.4-31.7 1.4-17.3 1M1058.1 246.6l-4.9-1M1503.9 125.3h3.9l6.4.8M1089.3 242.2l-2.8-1.5-15.7 4.2-6.1 1.6-3.3.1h-3.3M1059.3 251l3.2-.4 4.2-.5 6.6-1.8 13.9-3.7 2.1-2.4M1089.3 242.2l2.8-.7 12.2-3M765 224.2l10.2-2.2M1824.7 150.7l4.3.1 12.7.5"/>
        <path d="M1857.2 139.5l-5.3.3-27.2 10.9M1857.2 139.5l3.9-1.4M984.2 213.1l7 2.3 8 3 9.4 5.3M1861 138.1l6.8-2.4 3-1.2 50.7-18.7 9.5-4.3M960.9 206h-2.2l-11 .6M1791.7 153.2l1.3.1h12.6M1010.4 220.6l-10.7-6.3M1008.6 223.7l21.5 15.7M1800.5 43.7l5.5 2.1 7.6 3.3 15 8.2 8.6 4.7 4.8 2.5M988.5 210l-4.6-1.4-7.3-1.5-4.1-.8-5.3-.6M973.1 211.2l3.3.5 7.8 1.4M999.7 214.3l-4.6-2-6.6-2.3M948.9 211.3l12.3-.4h7.1l4.8.3M1514.2 126.1l1.4.2 7.8 1.5 16.5 5 5 1.6 5.5 1.9 9 2.7 10.3 2.1 11.1.4h5.6l3.8-.8 7.5-1.4 11.8-4.3 6.3-3.4 2.4-1.9 2.9-2 9-6.5 11.9-6.2 9.2-3.2 3.3-.5 8.7-.4 9.6.5 9.6.8 3.5.5 14.9 2 8.2 2 6.7 2.7 3 1.6 4 2.1 4 3 2.8 2 6.8 5.3 10.8 6.6 3.1 1.6 7.1 3.4 4.6 2 3.3 1.3 2.8.9 6.6 2 2.5.4 6.8 1.2 7.8.4M1030.1 239.4l5.4 3.9M793 214.9l-3.6.4-3.5.7-21 4.1M1410 158l4.8-2 10.1-4.8 6.2-3.2 4.4-2.6 4-2.5 5.8-3.4 7-4 9.6-3.9 6.2-2.1 2.6-.8 4.2-1.2 9.7-1.2 8.2-.8M967.2 205.7l-6.3.3M706 226.8l-6.1-.9-5.6-2.2-5.8-2.2M1394.1 163.8l4.4-1.5 9.1-3.2 2.4-1M679.2 216.1l-7.5-4.7L660 203l-10.5-8.2-7.5-2.1M641.9 192.7l5.2 7.8 4.8 4M688.5 221.5l-9.3-5.4M1841.7 151.3l3.9-4 5.1-4.2 6.5-3.6M652 204.6l8.2 7 8.8 6.9 11.3 6.5 6.5 3.5M1842 64.5l3.4 1.8 2.5 1.3 9.8 4.2 6.8 2 1.7.4 5.3.8 9 .2h25l7.7 1 7.2 2.5M1800.5 43.7l-3.3-1.2-6-2.1-5.2-2M1375.5 169l1.8-.5 12-3 4.8-1.7M1227.8 207l7.2-2 3-.7M1148.8 227l2.4-.6 24.6-6.2 2.7-.7 29.3-7.4 2.6-.7 17.4-4.5M1238 204.3l3.7-1 14.7-3.6 2.5-.6 36-9.1 3-.8 33.3-9 3.2-.7 30.1-7.8 11-2.7M1018 226l-7.6-5.4M1140.3 229.3l8.5-2.3M1131.8 231.5l8.5-2.2M1119.3 234.7l12.5-3.2M1104.3 238.4l12.4-3.1 2.6-.6M1786 38.5l1.3 4.3 2.2 12.1M1802.9 137.1l1.5 9.4 1.2 6.8M1820.9 151.4l3.8-.7"/>
        <path d="M1805.6 153.3l6.2-.6 5-.5 4-.8M1790.1 58.4l1 6.2.5 3.1 3.5 21.6M798.4 219.8l21.3-1.2M907.4 213.5l10-.5M917.3 213l19.8-1.2"/>
        <path d="M1720.5 110.1c-1.6 1.6-9.3 6-11.5 6.6M1560.2 511c2 .2 9.2 3.1 10.7 4.5M1735.5 200.6a83.7 83.7 0 0 1-19.1 41.3M1584.1 615.1c.3-3.3.7-16.7.6-20M1725.4 138c1.5-1.5 8.8-4.6 10.9-4.6M1319.6 481.7c-5.3-2.1-14-3.3-15.7-10.3M1592.6 696.9c91.4-14 182.6-29.3 273.8-44.4M1378.8 51c-1 2.4-3 12.3-3 14.8M1862.2 307.5l5.8-6M1389.7 12c0 13.5-.7 28.8-11 39M1044.5 200.6c-14 1.7-28.2 1.5-42.4 2.4M1016.5 91.3l11.7-.9M1276 704.9l17.4-11.9M1211.1 749.9c20.8-16.2 43.2-30.2 64.9-45M1201.5 760.8c2-1.5 8.5-8.7 9.6-11M890.5 838.6c85-22.3 170.2-43.5 255.2-65.6M1709.8 42.4c4.7 26.9 8.4 53.9 13 80.7M1324.9 394.6l-3.7 16M1339.3 346.2l-14.4 48.4M794.2 863c25.5-6.4 51-12.7 76.3-19.3M988.5 210l9.8-7M1221.3 76.8l154.5-11M1775.6 37.9l10.4.6M1709.8 42.4c22-1.6 43.8-3.2 65.8-4.5M998.8 94.5l4.4-1M1003.2 93.5l13.3-2.2M1825.3 171.3l-13.5 17.9M1124.8 528.5l4.7-1.3M1114.2 531.2l10.6-2.7M1809 172.7l-3.4-19.4M1811.8 189.2l-2.9-16.5M1811.8 189.2l2.4 15.8M1217.8 77l3.5-.2M1205.9 77.9l11.9-.9M1028.2 90.4L1206 78M1032.8 974l6.4 24M1028.7 958.5l3.1 11.8M1696.6 43.2l4-.2M1673 44.8l6.5-.4M1703.2 42.9l6.6-.5M1615.3 474.7c-21.7-41.7 20.8-88.9 25.6-132.3M738 627.3l-28.8 7.4M1319.6 481.7c65.6 19.5 130.8 39.9 196.4 59.3M824.1 605.4c32.8-8.4 65.5-17 98.3-25.3M1615.3 474.7c71-44.4 141.6-89.8 213-133.7M1129.5 527.2c56.8-14.8 113.7-29.4 170.7-44M1516 541c33.3-21.9 65.4-45.4 99.3-66.3M738 627.3l18.9-4.7M1689.3 43.7l7.3-.5M922.4 580.1l9.9-2.6M756.9 622.6l19.4-5M1700.7 43l2.5-.1M776.3 617.6l34.6-8.9M811 608.7l13.1-3.3M1300.2 483.3c3.2-.7 16.1-1.7 19.4-1.6M1204.7 752.6c-2.7 1.4-12.9 7.8-15.3 9.5M1220 757c-1.6-.8-7.6-5.6-8.9-7.1M1189.4 762.1c2 .2 10.1-.7 12.1-1.3M1679.5 44.4l9.8-.7M1201.5 760.8c3.2-.4 15.5-3 18.6-3.7M1592.6 696.9l-5.5.5M1375.8 65.8l297.2-21M1184.8 763.4l4.6-1.3M1594.3 716l-1.7-19.1M1599.8 778l-5.5-62M1607 858.8c-1.9-18.6-3.3-37.3-5-55.9M1211.1 749.9l-6.4 2.7M1008 558.2l9.6-2.4M932.3 577.5l10.4-2.6M999.4 560.4l8.7-2.2M942.7 574.9l56.7-14.5M1683.9 9.7l5.4 34M926.4 554.6l2.9 10.9M1605.2 899.8c1.5 15.8 2.2 31.7 4.8 47.3M989.2 800.8l2.8 11.6M700.1 637c31.2 120 71.6 237.8 97 359.1M700.1 637l9.1-2.3M1009 880.8l2.7 10.6M994.6 823.1l14.4 57.7M992 812.4l2.6 10.7M935.9 590.7c17.6 70 35.7 140 53.3 210M932.3 577.5l3.6 13.2M1011.7 891.4l3.4 13.2M929.3 565.5l3 12M1015.1 904.6c4.3 18 9.1 36 13.6 53.9M1031.8 970.3l1 3.7M1145.7 773l39-9.6M1493.9 556.1l22-15M1814.2 205a198 198 0 0 0 24.7 71M1841.7 151.3l-16.4 20M1739.8 227.9c25-11 50.6-21.4 72-38.7M1716.4 241.9c3.8-2.5 19.4-11.8 23.4-14M1683.4 273.1c9.3-12 20.8-22.1 33-31.2M1578.8 597.8c1.2 26.8 5 53.4 6.7 80.1M1584.1 615.1c-.6-3-4.1-14.5-5.3-17.3M1592.6 696.9c-3-27.3-3.4-54.8-8.5-81.8M1585.5 678l1.6 19.4M1602 802.9l-2.2-24.9M1587.1 697.4c4 45.3 8.4 90.5 12.2 135.8M945.1 197l2.6 9.6M1568.8 505.2l2.6 15.2M1571.4 520.4c2.8 25.8 3 51.8 7.4 77.4M717.8 133l6.3 29.8M1381.4 632.9c37.5-25.6 75-51 112.5-76.8M1375.2 637l6.2-4.1M1374.7 732.3c14.2-2.8 28-7.6 42.4-9.5M1220 757c51.7-7.8 103.1-16.6 154.7-24.7M1293.4 693c27.1-19 54.6-37.2 81.8-56M1601.5 859.4l2.6 29.4M1604.1 888.8l1.1 11M1599.3 833.2l2.2 26.2M1608.6 878.4l-1.7-19.6M1617 974.3c-2.2-32-5.2-64-8.4-96M1612.4 980l1 16.9M1417 722.8c56.6-9.1 113.6-15.6 170.1-25.4M1612.3 975l.1 5M1610 947.1c.5 4.7 2 23.2 2.3 27.9M1238 204.3c17 69.3 36.4 138 51.7 207.8M1618.8 995l-1.3-15.9M1617.5 979.1l-.4-4.8M1722.8 123.1c4.6 25.8 8.4 51.7 12.7 77.5M1735.5 200.6l4.3 27.3M1782 15.7l4 22.8M1289.7 412.1c5.6 17.5 6.2 36.7 16.1 52.5M1303.9 471.4l-3.7 11.9M1321.2 410.7c-4.4 20.6-11.7 40.4-17.3 60.7M1375.8 65.8c2 33.5 21.1 64 18.3 98M1640.9 342.4c9-19 19.5-37.4 31.3-55M1672.2 287.5l11.2-14.4M1843.3 283l9.4 13.4M1838.9 276l4.4 7M1852.7 296.4l3.3 4.2M1856 300.6l6.2 7M1854.3 315.6l8-8M1848.7 321.3l5.6-5.7M870.5 843.7l12.3-3M882.8 840.6l7.7-2M793 214.9l-2.8-11.2M776.8 149.8c-6.5-24.7-12.8-49.5-18.8-74.3M794 219.9l-1-5M758 75.5c-7.6-20.3-10-40.9-11.9-61.4M737.8 216.6c2.3.3 11.6.5 13.9.3M790.2 203.7c-4.3-18-8.9-36-13.4-53.9M724 162.8c6.1 17.6 2.7 37.9 13.8 53.8M764.1 230c5.1-1.4 25-8.1 29.9-10.1M751.7 217c3.2 3.5 4.5 15 12.4 13M1838 333l10.7-11.7M1828.2 341l9.8-8M712.1 250.9c-2.5 3-11.6 15.6-13.5 19M698.6 269.9c-.9 3.2-3.8 16.4-4.4 19.7M691.9 316.6l-1 18.6M693 300l-1.1 16.6M1205.9 77.9c10.8 42 21.4 84.2 32.1 126.4M690.9 335.2l-.3 12.5M1221.6 66.5l-.3 10.3M1222.2 49.3l-.6 17.2M694.2 289.6l-1.2 10.5M1190.3 16.6a44644 44644 0 0 0 15.6 61.3M1230.7 76.1c-1.7-20-.1-40.2.4-60.3M1223.4 14.1l-1.2 35.2M951.1 220l2 7.8M953.2 227.8l9.8 38.8M948.9 211.3l2.2 8.8M985 366c-.8-24.7-10-47.9-15-71.8M948.9 211.3l-1.2-4.7M998.3 203c-5.2.2-26 2-31.1 2.7M963 266.6l7 27.6M690.6 347.7c2.7 38.4 9.8 76.4 15.6 114.5"/>
        <path d="M751.4 635c.2 74.4 29 146.7 41 220.3 16 71 32.8 141.8 53 211.6M750 624.3c.4 1.8 1.4 9 1.4 10.7M706.2 462.2c15.1 53.7 17.5 112.3 43.8 162.1M692.4 9.8l25.4 123.1M984.2 213.1l4.3-3.1M924.1 112.5c6 28.4 14.2 56.3 21 84.5M924.1 112.5c25-6 49.6-12.6 74.7-18M998.3 203h3.8M1341.4 339.3c-1 .9-2.4 5.5-2 6.9M1339.3 346.2c.9-1 2.2-5.7 2-7M1344.8 329.1l-3.4 10.2M1358.9 281.3c-4.3 16-9.5 31.8-14.1 47.8M1362.6 268.8a39.8 39.8 0 0 0-3.7 12.5M1358.9 281.3c1.1-2 3.7-10.2 3.7-12.5M1389.8 179.7c-9.1 29.7-17.3 59.7-27.2 89.1M1394.1 163.8l-4.3 16"/>
      </g>
    </g>
  </g>
  <g fill="none" stroke="#000" stroke-linecap="round" stroke-width="1">
    <path d="M522.1 420.4l-4.8-5.6-8.1-10.4-7-8.3-6.4-9.3-5-10.9-6.6-2.3-8.2-4.2-6.7-3.4-8.5-4.4-2.4-1.2-4.8-1.8-2.2-.7-5.6-3.1M556.3 462.3l7.8-8.5 5.7 5.2-11.8 12.8M445.8 354.8l-4.3-20.5-6.2-18.9-1.6-8M433.7 307.4l6.7-.1 3.5-.2 6.5.3 36.1-6.6 7.6-8.4.8-2.7 2.2-7.9 3-10.1 14-3.3-1-8.3"/>
    <path d="M445.8 354.8l7.4 6.5 6.5 4.4 7 6.6 9 9.9 12.6 19.2 5.3 8.8 3.4 5.8 5.4 4.4 4.5.7 6 .9 3 .5 1.8.4 5.4 2.8 5.8 3.7 5.1 7 4 7.5 2.7 13.9 5 26.7.6 4.2 2.2 3.8"/>
    <path d="M551.3 501.7l-8.5-17.2-.1-.6-7.5-14.6-4.3-8.2-6.4-13.8-4.1-4.5-6.5-3.5-8-3-1.9-.8-2.6-2.2M548.5 492.5l-.2-6.4-.2-1.6-7.7-40.5-1.2-4.2-1.7-3.9-2.2-3.9-2.7-3.5-2.6-2.9-2.8-2-5-3.2"/>
    <path d="M554.3 507.6l-3-5.9-1.6-4.5-1.2-4.7M554.3 507.6l5.3-1-1.3-6.7-7-36.6 5-1 1.7 9.5 5.4 27-5 1M569.8 459l6.2.8 7.1 5.1 3.3 19.5"/>
  </g>

  <use href="#text" aria-hidden="true" stroke-width="2" stroke="#fff" fill="#fff"/>
  <use href="#text"/>

  <g transform="translate(5.8)">
    <path d="M989 518.8h5.6V591H989z"/>
    <circle cx="991.8" cy="596.3" r="9"/>
  </g>
  <path d="M746 350.3h428v208.4H746z"/>
  <g fill="#fff">
    <text 
      fill="inherit"
      font-family="'Helvetica Neue', sans-serif" 
      font-size="10.6" 
      font-weight="bold" 
      transform="matrix(3.43033 0 0 3.43033 88.8 -20)"
      x="195.5"
      y="149.6"
    >
      <tspan x="195.5" y="149.6">1331 Seventh St. Unit F</tspan>
      <tspan x="195.5" y="162.9">Berkeley, CA 94710</tspan>
    </text>
    <path fill="inherit" d="M792.2 403c1.6 0 3 .2 4.2.5a7.2 7.2 0 0 1 5.4 4c.6 1 .8 2.3.8 3.8a7 7 0 0 1-1.2 4.2c-.7 1-1.9 2-3.4 2.7 2 .7 3.5 1.6 4.6 3.1 1 1.5 1.5 3.2 1.5 5.3 0 1.7-.4 3.1-1 4.4a8 8 0 0 1-2.6 3c-1.1.7-2.4 1.3-3.8 1.7-1.3.3-2.8.5-4.3.5h-15.7V403zm-.9 13.3c1.3 0 2.4-.3 3.2-1s1.3-1.5 1.3-2.9c0-.7-.1-1.4-.4-1.9l-1.1-1.2c-.4-.3-1-.4-1.6-.5l-2-.2H784v7.7zm.4 14c.8 0 1.4 0 2-.2.7 0 1.2-.3 1.8-.7.5-.4.8-.8 1.1-1.3.3-.5.5-1.3.5-2.1 0-1.7-.6-2.9-1.4-3.6a6 6 0 0 0-3.8-1H784v9zM825.5 433a6.4 6.4 0 0 1-3 2.8c-1.3.5-2.7.8-4.3.8-1.8 0-3.4-.3-4.7-1a9.8 9.8 0 0 1-3.4-3c-.8-1-1.6-2.5-2-4a19 19 0 0 1 0-9.5c.4-1.5 1-2.8 2-4 .9-1.1 2-2 3.3-2.7 1.3-.7 2.9-1 4.7-1 1.4 0 2.7.3 4 .8 1.3.6 2.3 1.5 3 2.6h.2v-11.7h6.6v33h-6.3zm-.3-11.9a6.6 6.6 0 0 0-2.7-4.1c-.7-.5-1.6-.7-2.6-.7s-2 .2-2.8.7-1.4 1-1.8 1.7-.7 1.5-1 2.4-.3 1.8-.3 2.9c0 1 .1 1.8.4 2.7.2 1 .5 1.7 1 2.5.4.7 1 1.3 1.8 1.8.8.4 1.6.6 2.7.6 1 0 2-.2 2.6-.6.8-.4 1.3-1 1.7-1.7.5-.8.8-1.6 1-2.5a13.2 13.2 0 0 0 0-5.7z"/>
    <path fill="inherit" d="M762 367.5v83.8h83.8v-83.8zm6.4 6.4h71v71h-71z"/>
  </g>
</svg>
